<svg version="1.1"
	xmlns="http://www.w3.org/2000/svg"
	xmlns:xlink="http://www.w3.org/1999/xlink" x="0px" y="0px" viewBox="0 0 512 512" width="512" height="512" xml:space="preserve">
	<style type="text/css">
		.st0{
			fill: #00FF79;
		}
	</style>
	<path class="st0" d="M277.1,3.3c-9.4,24.3-18.3,47-27.2,70.2l-97.3-55.3c0,0,5.9,49.3,17.8,69.3C131.2,80.5,31.3,79,31.3,79s64.6,46.3,97.5,70
	c-37,7.6-72.5,15.1-108.1,22.4l0.2,1.2c44.5,11,89.1,22,134.8,33.2c-20.9,17-41.7,34.1-62.6,51.1c35.6-2.5,69.4-5,103.1-7.4
	c0.8-1.3,0.5-2.8,0.2-4c-7.1-37.3-0.7-72.5,21.2-105.1c31.7-45.4,83.4-36,92.8-37.5C300.5,74.6,287.7,33.4,277.1,3.3L277.1,3.3z"/>
	<path class="st0" d="M485.1,230.2c-0.4-0.4-0.7-0.8-1.1-1.2c-6-6.6-15.8-13.5-28.5-20.2c-17.2-9-40.2-17.3-66.2-24.1
	c-5.8-21.2-13.8-44.1-35.8-55.6c-18-9.6-35.5-13.1-51.3-12.8c-30.2,0.4-54.3,14.7-64.7,27.2c-14.8,17.9-22.6,38.3-25.1,60.6
	c-2,18.4-0.1,35.7,5.3,52.2l125.4-20.2l25.2-4l-4.8,22.6L362,262c8.4,0.8,16.1,1,24.2,1.3c7.1-17.9,9.2-36.7,7.3-56.1
	c15,5.9,28.4,13,39.5,20.6c16.5,11.6,28.2,24.1,33.8,36c4.6-1.5,8.8-3.1,12.1-4.8c7.3-3.9,11.2-8.2,12.1-12.7
	C492.1,241.6,490.3,236.3,485.1,230.2z M247,208.5c-8.7,0-15.7-6.4-15.7-14.1c0-6.8,5.5-12.3,12.7-13.6l0,0
	c-2.2,1.9-3.7,4.5-3.7,7.3c0,5.6,4.9,10.1,11.2,10.1c4.8,0,9-3,10.4-6.9c0.2,1,0.7,2,0.7,3.1C262.6,202.1,255.6,208.5,247,208.5z
	 M306.5,210L306.5,210c-9.5,0-17.3-7-17.3-15.6l0,0c0-7.5,6.1-13.6,14-15l0,0c-2.5,2-4,4.9-4,8.1c0,6.2,5.5,11.1,12.3,11.1l0,0
	c5.4,0,9.9-3.3,11.5-7.6c0.2,1.2,0.7,2.2,0.7,3.4C323.8,202.9,316,209.8,306.5,210z"/>
	<path class="st0" d="M346.3,251.8L213,273.1l114.1,67.6l4-19.9l0.9-4.5l4.8,0.7c38.7,5.9,74.1,6.4,100.2,2.3c13-2,23.6-5.2,31-9
	c7.4-3.8,11.2-8.2,12.1-12.7l7-32.6c-1.1,0.6-2.1,1.2-3.2,1.8c-8.8,4.7-20.6,8-34.4,10.2c-27.6,4.5-63.9,4.2-103-1l-5.2-0.7l0.9-4.6
	L346.3,251.8L346.3,251.8z"/>
	<path class="st0" d="M246.1,311.8c-12.6,2.7-25,5-36.9,8.2c-29.1,7.6-50.8,23.5-62.9,48.8c-7,14.4-11.3,29.6-12.5,45.2c-0.6,7.9-0.3,98-0.3,98
	h67.6l0.3-94.9h25l0.8,94.9h207L434,411.6h17.2l0,100.4H489c-0.2-36.3,2.2-93.8-6.8-129.1c-4.6-17.8-12.8-34.1-28.8-46.4
	c-0.6-0.5-1.4-0.7-2-1.2c-12.3,1.8-37.8,2.8-52.8,2.8c-16.7,0-34.2-1.2-52.3-3.4l-1.8,8.9l-4.7,23.7l-22.3-13.2L246.1,311.8
	L246.1,311.8z"/>
</svg>
